<svg width="1920" height="1920" viewBox="0 0 1920 1920" fill="none" xmlns="http://www.w3.org/2000/svg">
<path d="M1313.99 1725L1726 1314H1559.43L1231 1642.21L1313.99 1725Z" fill="#969696"/>
<path d="M1359.17 513.556L520.99 1352.83L604.258 1435.86L1442.41 596.638L1359.17 513.556Z" fill="#969696"/>
<path d="M360.68 677H194L606.471 1089L689 1006.64L360.68 677Z" fill="#969696"/>
<path d="M524 1006L613.919 194H1089.04L1172 276.94L1126.75 627.84L1043.79 710.78L720.082 711.36L688.756 1006H524ZM759.531 333.2L735.166 572.16H973.017L997.382 333.2H759.531Z" fill="#1B4C50"/>
<path d="M761 1726L849.259 902H1314.59L1406 993.733L1364.3 1342.25L1281.27 1426.42L957.261 1427.01L925.906 1726H761ZM996.745 1043.26L972.358 1285.75H1210.43L1234.81 1043.26H996.745Z" fill="#00D1E0"/>
<path d="M1559.43 1313.5H1726L1313.99 902L1231 984.888L1559.43 1313.5Z" fill="#D9D9D9"/>
<path d="M605.98 265L194 677H360.57L689 347.99L605.98 265Z" fill="#D9D9D9"/>
</svg>
